<?xml version="1.0" encoding="utf-8"?>
<!-- Generator: Adobe Illustrator 27.4.0, SVG Export Plug-In . SVG Version: 6.00 Build 0)  -->
<svg version="1.1" id="Livello_2_00000122711893983118516430000017888587246934922638_"
	 xmlns="http://www.w3.org/2000/svg" xmlns:xlink="http://www.w3.org/1999/xlink" x="0px" y="0px" viewBox="0 0 298.4 61.8"
	 style="enable-background:new 0 0 298.4 61.8;" xml:space="preserve">
<style type="text/css">
	.st0{fill:#191919;}
	.st1{fill:#FFFFFF;}
</style>
<rect class="st0" width="298.4" height="61.8"/>
<g id="Livello_1-2">
	<g>
		<path class="st1" d="M35,16.1c0.1-0.4,0.3-0.6,0.8-0.6h0.7c0.4,0,0.6,0.2,0.7,0.4l9.5,20.3h0.1L56.3,16c0.1-0.3,0.4-0.4,0.7-0.4
			h0.7c0.4,0,0.7,0.3,0.8,0.6L63.6,45c0.1,0.6-0.2,1-0.8,1h-3.9c-0.4,0-0.7-0.4-0.8-0.6l-2.5-16.3h-0.1L48,46
			c-0.1,0.3-0.4,0.4-0.7,0.4h-0.8c-0.4,0-0.6-0.2-0.7-0.4l-7.6-16.9H38l-2.7,16.2c0,0.3-0.4,0.6-0.8,0.6h-3.8c-0.5,0-0.9-0.4-0.8-1
			L35,16.1z"/>
		<path class="st1" d="M73.2,16.7c0-0.4,0.4-0.8,0.8-0.8h4.1c0.4,0,0.8,0.4,0.8,0.8v17.5c0,3.7,2.5,6.5,6.3,6.5
			c3.8,0,6.3-2.9,6.3-6.4V16.7c0-0.4,0.4-0.8,0.8-0.8h4.1c0.4,0,0.8,0.4,0.8,0.8v17.9c0,6.5-5.2,11.8-12,11.8s-12-5.3-12-11.8V16.7
			L73.2,16.7z"/>
		<path class="st1" d="M107,41.7l1.5-2.7c0.4-0.6,1.1-0.6,1.4-0.3c0.2,0.1,3.7,2.7,6.4,2.7c2.2,0,3.9-1.4,3.9-3.3
			c0-2.2-1.9-3.7-5.5-5.2c-4-1.6-8.1-4.2-8.1-9.3c0-3.8,2.9-8.2,9.7-8.2c4.4,0,7.7,2.2,8.6,2.9c0.4,0.3,0.5,1,0.3,1.4l-1.6,2.4
			c-0.4,0.5-1,0.9-1.5,0.5c-0.4-0.2-3.6-2.3-6-2.3c-2.4,0-3.8,1.6-3.8,3c0,2.1,1.6,3.4,5.1,4.8c4.2,1.7,9,4.2,9,9.8
			c0,4.4-3.8,8.5-9.8,8.5c-5.5,0-8.6-2.5-9.5-3.3C106.9,42.6,106.7,42.5,107,41.7L107,41.7z"/>
		<path class="st1" d="M136.4,16.7c0-0.4,0.4-0.8,0.8-0.8h4c0.4,0,0.8,0.4,0.8,0.8v28.5c0,0.4-0.4,0.8-0.8,0.8h-4
			c-0.4,0-0.8-0.4-0.8-0.8V16.7z"/>
		<path class="st1" d="M167.5,15.4c4.4,0,7.5,1.3,10.4,4c0.4,0.4,0.4,0.9,0.1,1.2l-2.6,2.7c-0.3,0.4-0.7,0.4-1.1,0
			c-1.8-1.6-4.2-2.5-6.6-2.5c-5.5,0-9.6,4.6-9.6,10s4.1,9.9,9.7,9.9c2.6,0,4.7-1,6.5-2.4c0.4-0.3,0.8-0.3,1.1,0l2.7,2.8
			c0.4,0.3,0.3,0.9-0.1,1.2c-3,2.9-6.6,4.2-10.5,4.2c-8.6,0-15.5-6.8-15.5-15.4S158.9,15.4,167.5,15.4z"/>
		<path class="st1" d="M187.9,16.7c0-0.4,0.4-0.8,0.8-0.8h3.9c0.4,0,0.8,0.4,0.8,0.8v24.2h10.9c0.4,0,0.8,0.4,0.8,0.8v3.5
			c0,0.4-0.4,0.8-0.8,0.8h-15.8c-0.4,0-0.8-0.4-0.8-0.8L187.9,16.7L187.9,16.7z"/>
		<path class="st1" d="M211.3,44.9L224.7,16c0.1-0.3,0.4-0.4,0.7-0.4h0.4c0.4,0,0.6,0.2,0.7,0.4l13.2,28.9c0.3,0.5-0.1,1.1-0.7,1.1
			h-3.8c-0.6,0-1-0.3-1.3-0.9l-2.1-4.7H219l-2.1,4.7c-0.2,0.4-0.5,0.9-1.3,0.9h-3.8C211.4,45.9,211.1,45.4,211.3,44.9L211.3,44.9z
			 M229.9,35.6l-4.3-9.5h-0.1l-4.2,9.5H229.9L229.9,35.6z"/>
		<path class="st1" d="M248,16.7c0-0.4,0.4-0.8,0.8-0.8h9.8c5.1,0,9,3.4,9,8c0,3.3-2.7,5.9-4.7,6.8c2.2,0.7,5.6,3,5.6,7
			c0,4.8-4.1,8.3-9.4,8.3h-10.4c-0.4,0-0.8-0.4-0.8-0.8L248,16.7L248,16.7z M258.1,28.5c2.2,0,3.7-1.7,3.7-3.8s-1.5-3.7-3.7-3.7
			h-4.6v7.5H258.1z M258.8,40.9c2.1,0,3.8-1.7,3.8-3.9c0-2.2-2.1-3.8-4.4-3.8h-4.7v7.6L258.8,40.9L258.8,40.9z"/>
	</g>
</g>
</svg>
