<?xml version="1.0" encoding="UTF-8"?>
<svg id="Livello_2" data-name="Livello 2" xmlns="http://www.w3.org/2000/svg" viewBox="0 0 266.7 34.56">
  <defs>
    <style>
      .cls-1 {
        fill: #fff;
      }
    </style>
  </defs>
  <g id="Livello_1-2" data-name="Livello 1">
    <g>
      <path class="cls-1" d="m5.73.72c.05-.38.34-.72.86-.72h.77c.38,0,.67.19.82.48l10.56,22.66h.14L29.44.48c.14-.29.38-.48.82-.48h.77c.53,0,.82.34.86.72l5.66,32.26c.14.67-.24,1.1-.86,1.1h-4.37c-.43,0-.82-.38-.91-.72l-2.83-18.19h-.14l-8.4,18.87c-.1.29-.38.53-.82.53h-.86c-.43,0-.67-.24-.82-.53L9.04,15.17h-.14l-2.78,18.19c-.05.34-.43.72-.86.72H.93c-.62,0-1.01-.43-.91-1.1L5.73.72Z"/>
      <path class="cls-1" d="m48.45,1.39c0-.48.43-.91.91-.91h4.56c.53,0,.91.43.91.91v19.63c0,4.08,2.78,7.3,6.96,7.3s7.01-3.22,7.01-7.25V1.39c0-.48.38-.91.91-.91h4.56c.48,0,.91.43.91.91v19.97c0,7.3-5.81,13.2-13.39,13.2s-13.35-5.9-13.35-13.2V1.39Z"/>
      <path class="cls-1" d="m86.27,29.38l1.73-2.98c.38-.67,1.2-.67,1.63-.34.24.14,4.13,2.98,7.25,2.98,2.5,0,4.37-1.63,4.37-3.7,0-2.45-2.06-4.13-6.1-5.76-4.51-1.82-9.02-4.7-9.02-10.37,0-4.27,3.17-9.22,10.8-9.22,4.9,0,8.64,2.5,9.6,3.22.48.29.62,1.1.29,1.58l-1.82,2.74c-.38.58-1.1.96-1.68.58-.38-.24-4.03-2.64-6.67-2.64s-4.22,1.82-4.22,3.36c0,2.26,1.78,3.79,5.66,5.38,4.66,1.87,10.03,4.66,10.03,10.85,0,4.94-4.27,9.5-11.04,9.5-6.05,0-9.6-2.83-10.56-3.74-.43-.43-.67-.67-.24-1.44Z"/>
      <path class="cls-1" d="m119.05,1.39c0-.48.43-.91.91-.91h4.46c.48,0,.91.43.91.91v31.78c0,.48-.43.91-.91.91h-4.46c-.48,0-.91-.43-.91-.91V1.39Z"/>
      <path class="cls-1" d="m153.76,0c4.85,0,8.35,1.54,11.62,4.46.43.38.43.96.05,1.34l-2.93,3.02c-.34.38-.82.38-1.2,0-2.02-1.78-4.7-2.83-7.39-2.83-6.14,0-10.71,5.14-10.71,11.19s4.61,11.09,10.75,11.09c2.88,0,5.33-1.1,7.34-2.74.38-.34.91-.29,1.2,0l2.98,3.07c.38.34.29.96-.05,1.3-3.26,3.17-7.39,4.66-11.67,4.66-9.6,0-17.33-7.63-17.33-17.23S144.16,0,153.76,0Z"/>
      <path class="cls-1" d="m176.51,1.39c0-.48.38-.91.91-.91h4.42c.48,0,.91.43.91.91v26.93h12.24c.53,0,.91.43.91.91v3.94c0,.48-.38.91-.91.91h-17.57c-.53,0-.91-.43-.91-.91V1.39Z"/>
      <path class="cls-1" d="m202.72,32.83L217.65.53c.14-.29.38-.53.82-.53h.48c.48,0,.67.24.82.53l14.79,32.31c.29.62-.1,1.25-.82,1.25h-4.18c-.72,0-1.06-.29-1.39-.96l-2.35-5.18h-14.35l-2.35,5.18c-.19.48-.62.96-1.39.96h-4.18c-.72,0-1.1-.62-.82-1.25Zm20.74-10.23l-4.8-10.56h-.14l-4.7,10.56h9.65Z"/>
      <path class="cls-1" d="m243.71,1.39c0-.48.38-.91.91-.91h10.99c5.71,0,10.13,3.84,10.13,8.88,0,3.7-3.02,6.58-5.28,7.63,2.54.82,6.24,3.41,6.24,7.82,0,5.38-4.61,9.26-10.46,9.26h-11.62c-.53,0-.91-.43-.91-.91V1.39Zm11.33,13.2c2.45,0,4.13-1.92,4.13-4.32s-1.68-4.08-4.13-4.08h-5.14v8.4h5.14Zm.67,13.83c2.4,0,4.32-1.87,4.32-4.37s-2.4-4.18-4.9-4.18h-5.23v8.54h5.81Z"/>
    </g>
  </g>
</svg>